<svg xmlns="http://www.w3.org/2000/svg" viewBox="0 0 480 480"><defs><style>.cls-1{fill:#fff;}.cls-2{fill:#3f5cfd;stroke:#3f5cfd;stroke-miterlimit:10;stroke-width:5px;}</style></defs><g id="Layer_2" data-name="Layer 2"><g id="Layer_1-2" data-name="Layer 1"><rect class="cls-1" width="480" height="480" rx="72.76"/><path class="cls-2" d="M311.61,267.36h-.17l-57.91-1.06c-6.1-.11-9.33-6.92-5.39-11.36h0a8.65,8.65,0,0,0,1.55-9.14c-4.64-11-17-38-35.52-61.24-10.64-13.4-64-54-67.26-56.59l-.17-.1-3.58,4c-4,4.41-11.56,2.43-12.63-3.31l-10-54.36V74l60.05,1.36c6.12.14,9.32,7,5.32,11.42l-.94,1a6.66,6.66,0,0,0-1.42,6.59c3.61,10.83,15.43,43,34.43,63.89,15.4,17,63.68,51.09,66.64,53.22l.17.11,3.57-4c4-4.42,11.55-2.46,12.64,3.27l10.28,54.3Z"/><path class="cls-2" d="M191.1,248v151a7.09,7.09,0,0,1-7.25,6.91h0c-31.56,0-57.13-24.38-57.13-54.46V179.21a6.74,6.74,0,0,1,2.07-4.84l10.6-10.29a9.81,9.81,0,0,1,12.92-.52l30.9,25.38C201.26,203.76,191.1,225.34,191.1,248Z"/><path class="cls-2" d="M371.52,137.28v15.47a7.08,7.08,0,0,1-7.25,6.91h-85c-23.74,0-45.11,2.9-54-22.59l-8.92-22.31a7,7,0,0,1,6.78-9.37H344C359.2,105.39,371.52,119.67,371.52,137.28Z"/></g></g></svg>