<svg id="Layer_1" data-name="Layer 1" xmlns="http://www.w3.org/2000/svg" viewBox="0 0 115.12 22.42"><defs><style>.cls-1{fill:#fff;stroke:#fff;stroke-miterlimit:10;stroke-width:0.5px;}.cls-2{fill:#3f5cfd;}</style></defs><path class="cls-1" d="M22.92,17.7a2.25,2.25,0,0,1-.26-1.09V13.26A3.38,3.38,0,0,0,19.3,9.9a3.16,3.16,0,0,0-2.36,1,3.23,3.23,0,0,0-1,2.37,3.27,3.27,0,0,0,1,2.38,3.22,3.22,0,0,0,2.36,1h1A2.32,2.32,0,0,1,22.46,18a2.26,2.26,0,0,1,.2.94H19.3a5.71,5.71,0,0,1-5.72-5.72A5.7,5.7,0,0,1,19.3,7.53h.3c.2,0,.41,0,.61.07a3.94,3.94,0,0,1,.66.14,3.1,3.1,0,0,1,.61.22,5.81,5.81,0,0,1,1.15.63l0,0a6.33,6.33,0,0,1,.7.58A5.52,5.52,0,0,1,25,13.26V19A2.29,2.29,0,0,1,22.92,17.7Z" transform="translate(-2.68 -1.74)"/><path class="cls-1" d="M26.8,13.26A5.73,5.73,0,0,1,36.58,9.2a5.56,5.56,0,0,1,1.67,4.06,5.55,5.55,0,0,1-1.67,4A5.67,5.67,0,0,1,32.52,19H29.84a2.37,2.37,0,0,1,2.38-2.38h.3a3.23,3.23,0,0,0,2.37-1,3.19,3.19,0,0,0,1-2.36,3.35,3.35,0,1,0-6.69,0v8.29a2.39,2.39,0,0,1-2.38,2.37Z" transform="translate(-2.68 -1.74)"/><path class="cls-1" d="M39.07,19a2.39,2.39,0,0,1,2.37-2.37h1.08a1.08,1.08,0,1,0,0-2.16,3.26,3.26,0,0,1-1.08-.18A3.45,3.45,0,0,1,39.07,11a3.43,3.43,0,0,1,3.45-3.45H46a2.22,2.22,0,0,1-.58,1.54,2.27,2.27,0,0,1-1.8.84H42.52A1.07,1.07,0,0,0,41.44,11a1.08,1.08,0,0,0,1.08,1.09A3.48,3.48,0,0,1,46,15.53,3.31,3.31,0,0,1,45,18a3.34,3.34,0,0,1-2.45,1Z" transform="translate(-2.68 -1.74)"/><path class="cls-1" d="M57.1,17.7a2.32,2.32,0,0,1-.26-1.1c0-2.31,0-3.5,0-3.58a3.39,3.39,0,0,0-1-2.13,3.35,3.35,0,0,0-5.72,2.37V16.6a2.33,2.33,0,0,1-.27,1.1A2.29,2.29,0,0,1,47.75,19V2.12a2.32,2.32,0,0,1,1.69.7,2.28,2.28,0,0,1,.69,1.67V8.62a5.19,5.19,0,0,1,.77-.48,5.63,5.63,0,0,1,2.58-.61,5.71,5.71,0,0,1,3.32,1,5.37,5.37,0,0,1,.73.62,5.53,5.53,0,0,1,1.68,4.06V19A2.29,2.29,0,0,1,57.1,17.7Z" transform="translate(-2.68 -1.74)"/><path class="cls-1" d="M61,5.41a2.29,2.29,0,0,1,.7-1.67A2.33,2.33,0,0,1,63.35,3v.8A2.36,2.36,0,0,1,61,6.21ZM61,9.9a2.29,2.29,0,0,1,.7-1.67,2.33,2.33,0,0,1,1.68-.7V16.6A2.36,2.36,0,0,1,61,19Z" transform="translate(-2.68 -1.74)"/><path class="cls-1" d="M12.29,11.93h0L8.7,11.86l.66-.78a14.59,14.59,0,0,0-1.84-3.4,33.86,33.86,0,0,0-3.3-2.91h0l-.67.77L2.93,2h0l3.69.09L6,2.86A10.73,10.73,0,0,0,7.7,6.33,30.69,30.69,0,0,0,11,9.06h0l.66-.77.64,3.52Z" transform="translate(-2.68 -1.74)"/><path class="cls-1" d="M6.39,10.94V19H5.68A2.44,2.44,0,0,1,3.24,16.6V7.26l.92-1L6,7.9C6.88,8.66,6.39,9.77,6.39,10.94Z" transform="translate(-2.68 -1.74)"/><path class="cls-1" d="M15.22,5.25V6.4H10.7c-1.16,0-2.21.15-2.64-1.16L7.44,3.61h6.43A1.52,1.52,0,0,1,15.22,5.25Z" transform="translate(-2.68 -1.74)"/><path class="cls-2" d="M71.81,18.65H67.17V5.56h4.67a7,7,0,0,1,3.41.78,5.4,5.4,0,0,1,2.19,2.25,7.47,7.47,0,0,1,.77,3.5,7.53,7.53,0,0,1-.77,3.52,5.39,5.39,0,0,1-2.2,2.26A7.09,7.09,0,0,1,71.81,18.65Zm-1.88-2.37h1.76a4.46,4.46,0,0,0,2.07-.44A2.75,2.75,0,0,0,75,14.48a5.62,5.62,0,0,0,.43-2.39A5.61,5.61,0,0,0,75,9.72a2.77,2.77,0,0,0-1.26-1.35,4.42,4.42,0,0,0-2.06-.44H69.93Z" transform="translate(-2.68 -1.74)"/><path class="cls-2" d="M92.29,12.11a7.56,7.56,0,0,1-.81,3.64A5.59,5.59,0,0,1,89.28,18,6.6,6.6,0,0,1,83,18a5.66,5.66,0,0,1-2.19-2.3,7.55,7.55,0,0,1-.8-3.63,7.6,7.6,0,0,1,.8-3.65A5.69,5.69,0,0,1,83,6.17a6.6,6.6,0,0,1,6.26,0,5.65,5.65,0,0,1,2.2,2.29A7.6,7.6,0,0,1,92.29,12.11Zm-2.81,0a5.94,5.94,0,0,0-.41-2.34,3.21,3.21,0,0,0-1.16-1.45,3.09,3.09,0,0,0-1.75-.49,3.13,3.13,0,0,0-1.76.49,3.27,3.27,0,0,0-1.16,1.45,5.94,5.94,0,0,0-.41,2.34,6,6,0,0,0,.41,2.34,3.3,3.3,0,0,0,1.16,1.44,3.13,3.13,0,0,0,1.76.49,3.09,3.09,0,0,0,1.75-.49,3.23,3.23,0,0,0,1.16-1.44A6,6,0,0,0,89.48,12.11Z" transform="translate(-2.68 -1.74)"/><path class="cls-2" d="M105.88,10.14h-2.8a2.65,2.65,0,0,0-.31-1,2.4,2.4,0,0,0-.61-.73,2.79,2.79,0,0,0-.85-.46,3.21,3.21,0,0,0-1-.16,3.17,3.17,0,0,0-1.77.5,3.31,3.31,0,0,0-1.17,1.46,5.94,5.94,0,0,0-.41,2.32,5.85,5.85,0,0,0,.42,2.35,3,3,0,0,0,2.91,1.92,3.84,3.84,0,0,0,1-.14,2.69,2.69,0,0,0,.84-.44,2.28,2.28,0,0,0,.62-.69,2.71,2.71,0,0,0,.34-.93h2.8a5,5,0,0,1-.54,1.74,5.3,5.3,0,0,1-2.88,2.52A6.72,6.72,0,0,1,97.07,18a5.55,5.55,0,0,1-2.17-2.3,7.66,7.66,0,0,1-.8-3.63,7.6,7.6,0,0,1,.81-3.65,5.61,5.61,0,0,1,2.18-2.29,6.22,6.22,0,0,1,3.11-.79,6.81,6.81,0,0,1,2.11.32,5.64,5.64,0,0,1,1.73.93,5.08,5.08,0,0,1,1.23,1.49A5.62,5.62,0,0,1,105.88,10.14Z" transform="translate(-2.68 -1.74)"/><path class="cls-2" d="M115,9.33a1.63,1.63,0,0,0-.66-1.21,2.64,2.64,0,0,0-1.58-.42,3.17,3.17,0,0,0-1.14.18,1.57,1.57,0,0,0-.71.53,1.19,1.19,0,0,0-.25.75,1,1,0,0,0,.15.61,1.38,1.38,0,0,0,.45.45,2.79,2.79,0,0,0,.67.33,6.23,6.23,0,0,0,.8.23l1.18.28a8,8,0,0,1,1.57.52,4.67,4.67,0,0,1,1.24.78,3.24,3.24,0,0,1,.81,1.1,3.36,3.36,0,0,1,.3,1.45,3.59,3.59,0,0,1-.61,2.08,3.9,3.9,0,0,1-1.74,1.37,7,7,0,0,1-2.73.48,7.05,7.05,0,0,1-2.76-.49,4,4,0,0,1-1.83-1.44,4.33,4.33,0,0,1-.68-2.37h2.68a1.94,1.94,0,0,0,.38,1.1,2,2,0,0,0,.9.66,3.61,3.61,0,0,0,1.28.22,3.21,3.21,0,0,0,1.22-.21,1.75,1.75,0,0,0,.81-.57,1.31,1.31,0,0,0,.29-.83,1.09,1.09,0,0,0-.26-.74,1.88,1.88,0,0,0-.75-.52,7.57,7.57,0,0,0-1.21-.38l-1.43-.36a6,6,0,0,1-2.61-1.26,2.93,2.93,0,0,1-1-2.3,3.43,3.43,0,0,1,.64-2.08,4.27,4.27,0,0,1,1.77-1.39,6.27,6.27,0,0,1,2.55-.5,6.14,6.14,0,0,1,2.55.5A4.05,4.05,0,0,1,117,7.27a3.68,3.68,0,0,1,.62,2.06Z" transform="translate(-2.68 -1.74)"/></svg>